<svg width="28" height="26" viewBox="0 0 28 26" fill="none" xmlns="http://www.w3.org/2000/svg">
<path d="M23.6348 21.1039L24.9133 24.0542C25.1496 24.598 25.8002 24.8552 26.3678 24.6293C26.9364 24.4057 27.206 23.783 26.9704 23.2389L25.6922 20.2896L23.6348 21.1039Z" fill="#333333"/>
<path d="M24.4877 23.0706L26.5447 22.2561L24.4877 23.0706Z" fill="#333333"/>
<path d="M20.9372 14.877L23.8465 16.0287L20.9372 14.877Z" fill="#333333"/>
<path d="M22.5203 8.89645C22.5203 10.4642 21.1915 11.7349 19.5531 11.7349C17.9129 11.7349 16.5838 10.4642 16.5838 8.89645C16.5838 7.32897 17.9129 6.05896 19.5531 6.05896C21.1912 6.05896 22.5203 7.32897 22.5203 8.89645Z" fill="#333333"/>
<path d="M21.0359 8.89649C21.0359 9.68086 20.3719 10.3163 19.5527 10.3163C18.7325 10.3163 18.067 9.68086 18.067 8.89649C18.067 8.11278 18.7325 7.4773 19.5527 7.4773C20.3719 7.47694 21.0359 8.11278 21.0359 8.89649Z" fill="#333333"/>
<path d="M17.4707 10.9196L13.41 20.2899L12.3921 24.4949L13.0777 24.7664L15.4677 21.1043L16.0363 19.7937C15.5926 18.769 16.1009 17.5942 17.1724 17.1706L19.5271 11.734C18.7262 11.7276 18.0016 11.4183 17.4707 10.9196Z" fill="#333333"/>
<path d="M21.6331 10.9189C21.1018 11.4183 20.3766 11.7276 19.5757 11.7337L23.0686 19.7921L25.125 18.9781L21.6331 10.9189Z" fill="#333333"/>
<path d="M20.6653 4.63947V1.44605C20.6649 0.85753 20.165 0.38147 19.5521 0.38147C18.9372 0.38147 18.439 0.856886 18.4386 1.44605L18.439 4.63947H20.6653Z" fill="#333333"/>
<path d="M19.5527 6.05899C19.7424 6.05899 19.9284 6.07721 20.1083 6.10982V4.63977H18.9955V6.10982C19.1762 6.07689 19.3611 6.05899 19.5527 6.05899Z" fill="#333333"/>
<path d="M4.09566 25.9407H0.392883V0.380859H4.09635C4.91455 0.380859 5.57745 1.01699 5.57745 1.80136V24.5214H5.57714C5.57676 25.3058 4.91387 25.9407 4.09566 25.9407Z" fill="#333333"/>
<path d="M3.91103 2.51126C4.21787 2.51126 4.46666 2.27281 4.46666 1.97865C4.46666 1.6845 4.21787 1.44604 3.91103 1.44604C3.60419 1.44604 3.35547 1.6845 3.35547 1.97865C3.35547 2.27281 3.60419 2.51126 3.91103 2.51126Z" fill="#333333"/>
<path d="M8.16943 15.4696C8.16943 15.7626 8.41841 16.0019 8.725 16.0019C9.03196 16.0019 9.28062 15.7626 9.28062 15.4696C9.28062 15.7626 9.52991 16.0019 9.83618 16.0019C10.1431 16.0019 10.3917 15.7626 10.3917 15.4696C10.3917 15.7626 10.1431 16.0019 9.83618 16.0019C9.52991 16.0019 9.28062 15.7626 9.28062 15.4696C9.28062 15.7626 9.03196 16.0019 8.725 16.0019C8.41841 16.0019 8.16943 15.7626 8.16943 15.4696Z" fill="#333333"/>
<path d="M8.91033 0.380859C8.50169 0.380859 8.16943 0.699402 8.16943 1.09175V1.09143V16.0016L9.28025 20.2615L10.3914 16.0016V1.09111V1.09143C10.3914 0.699722 10.0595 0.381179 9.65054 0.381179L8.91033 0.380859Z" fill="#333333"/>
</svg>
