<svg xmlns="http://www.w3.org/2000/svg" aria-hidden="true" overflow="hidden" style="position:absolute;width:0;height:0">
  <defs>
    <symbol id="arrow-left" viewBox="0 0 33 32">
      <path d="M5.247 15.333c0-.368.298-.667.667-.667h21.333a.667.667 0 0 1 0 1.334H5.914a.667.667 0 0 1-.667-.667z"/>
      <path d="M22.109 10.195c.26-.26.682-.26.943 0l5.138 5.138-5.138 5.138a.668.668 0 0 1-.943-.943l4.195-4.195-4.195-4.195a.668.668 0 0 1 0-.943z"/>
    </symbol>
    <symbol id="arrow-right" viewBox="0 0 32 32">
      <path d="M28 15.333a.667.667 0 0 0-.667-.667H6A.667.667 0 0 0 6 16h21.333a.667.667 0 0 0 .667-.667z"/>
      <path d="M11.138 10.195a.668.668 0 0 0-.943 0l-5.138 5.138 5.138 5.138a.668.668 0 0 0 .943-.943l-4.195-4.195 4.195-4.195a.668.668 0 0 0 0-.943z"/>
    </symbol>
    <symbol id="facebook" viewBox="0 0 17 32">
      <path d="M10.336 31.988h-6.89v-15.99H.002v-5.512h3.444V7.178c0-4.495 1.945-7.171 7.466-7.171h4.598v5.512h-2.872c-2.152 0-2.294.771-2.294 2.21l-.008 2.757h5.208l-.61 5.512h-4.598v15.99z"/>
    </symbol>
    <symbol id="Linked-In" viewBox="0 0 32 32">
      <path d="M29.619 30.421H2.381c-1.306 0-2.363-.926-2.363-2.069V3.651c0-1.141 1.058-2.067 2.363-2.067h27.238c1.304 0 2.362.926 2.362 2.067v24.701c0 1.142-1.058 2.069-2.362 2.069zM5.557 25.67h4.707V12.651H5.557V25.67zM7.942 6.376c-1.611 0-2.662.971-2.662 2.25 0 1.248 1.021 2.25 2.6 2.25h.03c1.642 0 2.662-1.002 2.662-2.25-.029-1.278-1.021-2.25-2.63-2.25zm19.295 11.83c0-4-2.323-5.861-5.419-5.861-2.499 0-3.616 1.262-4.242 2.15V12.65h-4.707c.062 1.222 0 13.019 0 13.019h4.707v-7.27c0-.387.03-.778.155-1.054.339-.778 1.115-1.582 2.414-1.582 1.704 0 2.384 1.194 2.384 2.944v6.963h4.707v-7.464zm-9.693-3.667.032-.043v.043h-.032z"/>
    </symbol>
    <symbol id="location" viewBox="0 0 22 32">
      <path stroke-width="2" d="m3.016 18.498.011.016L11 30.223l7.995-11.74c1.478-2.003 2.15-4.725 1.979-7.438s-1.176-5.305-2.909-7.068a9.87 9.87 0 0 0-14.13 0l-.919 14.521zm0 0-.011-.015m.011.015-.011-.015m0 0c-1.478-2.003-2.15-4.725-1.979-7.438m1.979 7.438-1.979-7.438m0 0c.17-2.713 1.176-5.305 2.909-7.068l-2.909 7.068zm5.45.032c0 2.576 2.057 4.692 4.631 4.692s4.631-2.117 4.631-4.692c0-2.576-2.057-4.692-4.631-4.692s-4.631 2.117-4.631 4.692z"/>
    </symbol>
    <symbol id="logo" viewBox="0 0 51 32">
<path d="M34.808 24.259c0.508-0.182 1.172 0.013 1.316 0.404 0.078 0.221 0.052 3.126 0.039 3.595 0 0.625 0.104 1.159-0.456 1.355-0.508 0.182-1.172 0.026-1.329-0.378-0.091-0.247-0.052-3.113-0.052-3.608 0-0.664-0.091-1.146 0.482-1.368zM1.394 29.626l0.026-5.38c0.69 0 1.602-0.156 1.759 0.495 0.065 0.313 0.065 4.103-0.013 4.416-0.169 0.625-1.094 0.469-1.772 0.469zM30.626 29.613l0.013-5.367c0.769-0.013 1.628-0.156 1.72 0.612 0.039 0.326 0.013 0.847 0 1.185 0 0.378 0.078 0.808-0.195 0.977 0.274 0.495 0.208 0.573 0.195 1.238 0 0.456 0 0.912 0 1.368l-0.56-0.013c0-0.495 0.065-1.863-0.052-2.241-0.208-0.078-0.287-0.078-0.56-0.065v2.306h-0.56zM27.63 29.6c-0.234 0.039-0.534 0.104-0.56-0.156l0.013-2.228c0-0.886-0.078-2.11 0-2.957 0.339-0.065 1.107-0.052 1.355 0.078 0.391 0.208 0.378 0.56 0.365 1.107 0 0.43 0.078 1.029-0.117 1.368-0.195 0.365-0.56 0.391-1.055 0.391v2.397zM8.585 26.773c1.055-0.104 0.951-0.039 0.951 0.899 0 0.456 0.091 1.433-0.143 1.72-0.3 0.352-1.029 0.391-1.394 0.065-0.339-0.3-0.208-1.107-0.208-1.602 0-0.625 0-1.238 0-1.863 0-1.081-0.182-1.837 1.016-1.772 0.638 0.026 0.808 0.534 0.716 1.094-0.039 0.221-0.3 0.313-0.534 0.365 0-0.3 0.078-0.834-0.143-0.951-0.417-0.221-0.495 0.156-0.495 0.495v3.218c0 0.352-0.078 0.756 0.313 0.756 0.417 0 0.326-0.43 0.326-0.808 0-1.55 0.052-0.808-0.248-1.29-0.065-0.104-0.13-0.234-0.156-0.326zM17.625 24.272c0.234-0.091 0.508-0.052 0.586 0.195l0.339 2.202c0.13 0.938 0.391 2.019 0.469 2.957l-0.599-0.026c-0.104-0.638-0.378-3.231-0.547-3.595l-0.495 3.608h-0.612l0.86-5.341zM44.526 25.002c0-0.521 0.274-0.782 0.782-0.782 0.534 0 0.964 0.104 0.964 0.782 0 0.795 0.091 1.003-0.56 1.146 0-0.326 0.078-1.277-0.117-1.394-0.208-0.117-0.469-0.052-0.508 0.195v3.309c0 0.43-0.078 0.743 0.13 0.873 0.508 0.313 0.495-0.339 0.495-0.69 0-0.495 0.078-0.625 0.56-0.69 0.013 0.886 0.221 1.915-0.821 1.915-0.547 0-0.925-0.156-0.925-0.769v-3.895zM40.917 24.91c0-0.651-0.117-0.677 0.547-0.664 0.339 0 0.821-0.026 1.146 0.013-0.026 0.182-0.261 0.469-0.43 0.508-0.456 0.078-0.703-0.195-0.703 0.274l0.013 1.511 0.886 0.013c-0.078 0.586-0.795 0.521-0.847 0.534-0.104 0.208-0.052 1.68-0.052 1.98l1.225 0.013c0 0.156-0.13 0.339-0.248 0.43-0.195 0.169-1.238 0.091-1.537 0.091v-4.703zM12.845 24.754c-0.013-0.625-0.039-0.508 0.977-0.508 0.482 0 1.016-0.026 1.485 0-0.182 0.73-0.443 0.404-1.042 0.56-0.078 0.378-0.026 4.090-0.026 4.807-0.195 0.013-0.417 0.052-0.534-0.052-0.169-0.221 0.026-4.090-0.065-4.781l-0.795-0.026zM47.053 24.754c0-0.261-0.078-0.482 0.208-0.508h2.241c-0.195 0.73-0.404 0.404-1.029 0.56-0.078 0.352-0.039 4.116-0.039 4.807-0.169 0.013-0.391 0.039-0.534-0.039-0.156-0.365 0.052-3.973-0.052-4.794l-0.795-0.026zM38.455 28.454c0.013 0.208-0.052 0.586 0.13 0.69 0.234 0.143 0.469 0.013 0.495-0.247 0.078-0.769-0.091-3.413 0.013-4.638 0.391-0.052 0.534-0.013 0.547 0.287 0.052 0.703 0 3.387 0 4.169 0 0.417-0.013 0.638-0.3 0.821-0.234 0.143-0.625 0.182-0.938 0.091-0.456-0.117-0.899-0.977 0.052-1.172zM21.208 29.613l0.013-5.38 0.495 0.039c0.13 0.391 0.026 4.025 0.052 4.82h1.264c-0.039 0.391-0.221 0.534-0.638 0.534-0.391 0-0.795 0-1.185-0.013zM35.107 24.715c-0.208 0.065-0.208 0.143-0.221 0.417v1.954c0 0.43 0 0.873 0 1.303 0 0.378-0.052 1.003 0.534 0.769 0.287-0.104 0.195-0.73 0.195-1.081v-2.631c0-0.43 0.026-0.912-0.508-0.73zM5.797 29.6c-0.756 0.156-0.56-0.261-0.56-0.886 0-1.172-0.065-3.556 0.013-4.468 0.716-0.052 0.547 0.208 0.547 0.886v4.468zM12.089 29.6c-0.769 0.156-0.56-0.247-0.56-0.886 0-1.172-0.052-3.556 0.013-4.468 0.3-0.013 0.339-0.039 0.547 0.104v5.25zM1.954 25.679v3.452c0.261 0 0.417 0.026 0.638-0.091 0.091-0.365 0.052-2.775 0.052-3.361 0-0.86 0.104-0.951-0.69-0.925v0.925zM31.186 26.799c0.247 0.026 0.378 0.013 0.56-0.052 0.065-0.208 0.117-1.641 0.013-1.824-0.117-0.195-0.313-0.156-0.573-0.143v2.019zM27.63 25.679l0.013 0.977c0.69 0.026 0.625-0.078 0.625-0.977 0-0.73 0.13-0.938-0.638-0.925v0.925zM32.398 15.44l1.485-0.586 0.925 2.136c0.169 0.391-0.026 0.847-0.43 1.003-0.417 0.169-0.886-0.026-1.055-0.417l-0.925-2.136zM33.010 16.86v0zM30.444 10.933v0zM31.59 6.595c0-1.133-0.964-2.058-2.149-2.058-1.198 0-2.149 0.925-2.149 2.058s0.951 2.058 2.149 2.058c1.185 0 2.149-0.925 2.149-2.058zM30.509 6.595c0 0.573-0.482 1.029-1.068 1.029-0.599 0-1.081-0.456-1.081-1.029s0.482-1.029 1.081-1.029c0.586 0 1.068 0.456 1.068 1.029zM27.93 8.067c0.378 0.352 0.912 0.573 1.485 0.586l-1.707 3.934c-0.769 0.313-1.146 1.159-0.821 1.902l-0.417 0.951-1.72 2.657-0.508-0.195 0.743-3.048 2.944-6.787zM30.939 8.054l2.54 5.849-1.498 0.586-2.527-5.836c0.573-0.013 1.107-0.234 1.485-0.599zM30.248 3.507v-2.306c0-0.43-0.365-0.782-0.808-0.782-0.456 0-0.808 0.352-0.808 0.782v2.306h1.615zM29.441 4.536c0.13 0 0.274 0.013 0.404 0.039v-1.068h-0.808v1.068c0.13-0.026 0.261-0.039 0.404-0.039zM18.238 18.944h-2.684v-18.524h2.684c0.586 0 1.068 0.469 1.068 1.029v16.466c0 0.573-0.482 1.029-1.068 1.029zM18.107 1.97c0.221 0 0.404-0.169 0.404-0.391 0-0.208-0.182-0.378-0.404-0.378s-0.404 0.169-0.404 0.378c0 0.221 0.182 0.391 0.404 0.391zM21.195 11.362c0 0.208 0.169 0.378 0.391 0.378s0.404-0.169 0.404-0.378c0 0.208 0.182 0.378 0.404 0.378s0.404-0.169 0.404-0.378c0 0.208-0.182 0.378-0.404 0.378s-0.404-0.169-0.404-0.378c0 0.208-0.182 0.378-0.404 0.378s-0.391-0.169-0.391-0.378zM21.729 0.42c-0.3 0-0.534 0.234-0.534 0.521v0 10.799l0.795 3.087 0.808-3.087v-10.799c0-0.287-0.234-0.521-0.534-0.521h-0.534z"></path>
</symbol>
    <symbol id="mail" viewBox="0 0 47 32">
      <path stroke-width="2.327" d="m23.678 17.925-.013.009a.591.591 0 0 1-.325.094h-.01a.57.57 0 0 1-.342-.095l-.002-.002L3.198 1.164h40.25L23.677 17.925zm5.514.953 14.477 11.958H2.862l14.509-12.047 2.891 2.451c.852.717 1.947 1.096 3.076 1.096s2.223-.381 3.076-1.101l.003-.002 2.775-2.355zm-15.141-2.903L1.164 26.677V5.055l12.887 10.92zM45.382 5.146v21.547L32.514 16.062 45.382 5.146z"/>
    </symbol>
    <symbol id="phone" viewBox="0 0 34 32">
      <path d="m32.006 25.254 1.983-.259-.009-.067-.013-.066-1.961.392zm-.475 1.356 1.409 1.42.006-.005-1.414-1.414zm-4.508 4.474-1.409-1.419-.04.04-.038.042 1.487 1.338zm-.797.577-.869-1.801h-.001l.87 1.801zm-.966.305v2h.142l.141-.02-.283-1.98zm-.204.017.198 1.99h.001l-.199-1.99zm-6.05-1.288zm-4.729-2.593zM8.65 23.356l1.422-1.406-.018-.018-1.404 1.424zm-3.932-4.475zm-2.509-3.949zM.04 6.746l-1.98-.283-.02.141v.142h2zm.881-1.763L2.259 6.47l.039-.035.037-.037L.921 4.984zM5.429.475zM7.87.881l1.769-.933-.038-.072-.044-.069L7.87.881zm3.627 6.882-1.769.933.013.024.013.024 1.743-.981zm-.407 2.271zm-1.661 1.661zm-.169.474h-2v.189l.035.185 1.965-.374zm.61 1.628 1.789-.894-.007-.013-.007-.013-1.776.921zm3.661 4.677 1.43-1.399-.015-.016-.016-.015-1.399 1.43zm2.712 2.424zm3.203 1.763.393-1.961h-.001l-.391 1.961zm.424.085-.393 1.961.194.039h.198v-2zm.22-.051.632 1.897h.001l-.633-1.897zm.221-.119 1.414 1.414.012-.013-1.426-1.402zm1.932-1.966-1.328-1.495-.051.045-.048.048 1.426 1.402zm2.339-.339-1.029 1.715.475.285h.554v-2zm.034 0 1.017-1.722-.471-.278h-.547v2zm6.542 3.864 1.053-1.7-.018-.011-.018-.011-1.017 1.722zm-1.136 1.378a.444.444 0 0 1 .028-.191c.033-.093.075-.135.066-.126l2.829 2.828c.804-.804 1.195-1.867 1.043-3.029l-3.966.518zm.1-.322-4.508 4.474 2.818 2.839 4.508-4.474-2.818-2.839zm-4.586 4.556s-.011.012-.038.031-.072.048-.141.082l1.738 3.603a4.521 4.521 0 0 0 1.414-1.04l-2.973-2.676zm-.18.113a1.294 1.294 0 0 1-.379.126l.565 3.96a5.308 5.308 0 0 0 1.553-.484l-1.74-3.602zm-.096.106a4.3 4.3 0 0 0-.402.027l.398 3.98.065-.006.04-.004.007-.001h-.006l-.027.002-.028.001-.047.001v-4zm-.402.027a2.938 2.938 0 0 1-.242.007v4c.215 0 .434-.007.639-.027l-.397-3.98zm-.242.007c-.265 0-.829-.052-1.782-.197l-.605 3.954c.968.148 1.793.243 2.387.243v-4zm-1.782-.197c-.74-.113-1.749-.411-3.062-.955l-1.532 3.695c1.467.608 2.807 1.033 3.989 1.214l.605-3.954zm-3.062-.956c-1.24-.514-2.704-1.31-4.4-2.42l-2.189 3.348c1.829 1.196 3.517 2.128 5.057 2.767l1.532-3.695zm-4.401-2.419c-1.612-1.054-3.379-2.535-5.299-4.478l-2.844 2.812c2.057 2.08 4.041 3.763 5.955 5.014l2.189-3.348zm-5.317-4.496c-1.524-1.502-2.759-2.912-3.721-4.23l-3.23 2.359c1.117 1.53 2.503 3.103 4.143 4.719l2.808-2.849zm-3.721-4.23c-.997-1.366-1.776-2.597-2.352-3.697L.437 15.86c.69 1.318 1.583 2.719 2.665 4.201l3.231-2.359zm-2.352-3.697c-.596-1.138-1.019-2.127-1.292-2.973l-3.808 1.225c.36 1.12.886 2.323 1.556 3.603l3.544-1.855zm-1.292-2.974c-.297-.923-.481-1.666-.573-2.243l-3.951.627c.134.846.38 1.799.716 2.842l3.808-1.225zm-.572-2.243c-.105-.661-.125-1.057-.114-1.253l-3.994-.222c-.034.617.036 1.34.157 2.102l3.951-.627zm-.114-1.253c.02-.361.037-.671.037-.789h-4v-.015a7.804 7.804 0 0 1-.006.119l-.025.463 3.994.222zm.016-.506c.012-.087.045-.212.126-.379l-3.602-1.739a5.308 5.308 0 0 0-.484 1.553l3.96.566zm.127-.38c.033-.069.062-.115.082-.142s.031-.037.031-.037L-.417 3.497c-.453.408-.79.897-1.039 1.414L2.146 6.65zm.189-.252 4.508-4.508L4.015-.939-.493 3.569l2.828 2.828zm4.509-4.508c.005-.005-.028.029-.104.062A.58.58 0 0 1 6.515 2v-4c-.993 0-1.849.41-2.499 1.06l2.828 2.828zM6.514 2a.755.755 0 0 1-.421-.146l2.4-3.2A3.265 3.265 0 0 0 6.513-2v4zm-.42-.146a.376.376 0 0 1 .089.101L9.558-.192a4.355 4.355 0 0 0-1.064-1.153l-2.4 3.2zm.007-.04 3.627 6.881 3.539-1.865L9.64-.051 6.101 1.814zm3.653 6.929a.387.387 0 0 1-.042-.13c-.008-.055-.001-.085-.003-.076l3.914.824a3.652 3.652 0 0 0-.383-2.579L9.754 8.743zm-.044-.206c-.009.044-.019.063-.021.067s-.004.007-.012.016l2.828 2.828c.584-.584.954-1.3 1.119-2.087L9.71 8.537zm-.034.083-1.661 1.661 2.828 2.828 1.661-1.661L9.676 8.62zm-1.661 1.661c-.366.366-.528.78-.602 1.002l3.795 1.265c-.01.029-.034.096-.081.184a1.64 1.64 0 0 1-.283.377l-2.828-2.828zm-.602 1.002a2.82 2.82 0 0 0-.153.887h4c0 .128-.015.224-.026.278a.659.659 0 0 1-.026.1l-3.795-1.265zm-.118 1.261c.138.726.428 1.458.799 2.174l3.551-1.841c-.262-.504-.379-.858-.421-1.081l-3.929.748zm.786 2.147c.34.679.827 1.439 1.424 2.262l3.239-2.347c-.534-.736-.882-1.299-1.085-1.704l-3.578 1.789zm1.424 2.262c.656.905 1.544 1.891 2.628 2.951l2.797-2.859c-.995-.974-1.712-1.784-2.186-2.439l-3.239 2.347zm2.596 2.92c1.061 1.085 2.051 1.977 2.964 2.642l2.356-3.233c-.669-.488-1.487-1.212-2.46-2.206l-2.859 2.797zm2.964 2.642c.829.604 1.586 1.096 2.251 1.436l1.819-3.562c-.397-.203-.963-.558-1.715-1.106l-2.355 3.233zm2.251 1.436c.559.285 1.171.558 1.739.672l.782-3.923c.026.005-.02-.002-.161-.059a6.819 6.819 0 0 1-.541-.252l-1.819 3.562zm1.738.671.424.085.785-3.922-.424-.085-.785 3.922zm.816.124c.402 0 .751-.119.852-.153l-1.264-3.795c-.014.005.007-.003.051-.013.023-.005.064-.014.117-.021.05-.007.136-.017.244-.017v4zm.854-.154c.22-.074.635-.236 1.001-.602l-2.829-2.828c.15-.15.292-.237.377-.283.088-.047.155-.071.183-.081l1.267 3.794zm1.013-.614 1.932-1.966-2.853-2.804-1.932 1.966 2.853 2.804zm1.834-1.873c.019-.017.032-.025.038-.029l.006-.003.001-.001h.001l.006-.001c.003 0 .02-.003.044-.003v-4a4.076 4.076 0 0 0-2.752 1.047l2.656 2.991zm.096-.037c.078 0 .101.007.083.003a.687.687 0 0 1-.197-.085l2.059-3.43c-.648-.389-1.354-.489-1.945-.489v4zm.915.203h.034v-4h-.034v4zm-.983-.278 6.542 3.864 2.034-3.444-6.542-3.864-2.034 3.444zm6.506 3.843c.068.042.06.051.027.008a.465.465 0 0 1-.087-.196l3.922-.785c-.222-1.107-.918-1.908-1.756-2.427l-2.106 3.401z"/>
    </symbol>
    <symbol id="pininterest" viewBox="0 0 24 32">
      <path d="M12.504 0C4.192 0 .002 5.932.002 10.88c0 2.995 1.139 5.659 3.582 6.653.401.163.76.005.876-.436.081-.305.273-1.076.357-1.398.118-.436.072-.589-.251-.97-.706-.827-1.155-1.898-1.155-3.416 0-4.401 3.308-8.34 8.613-8.34 4.697 0 7.277 2.858 7.277 6.673 0 5.022-2.232 9.26-5.546 9.26-1.829 0-3.198-1.507-2.76-3.355.527-2.205 1.544-4.586 1.544-6.179 0-1.425-.768-2.614-2.36-2.614-1.869 0-3.372 1.927-3.372 4.507 0 1.645.557 2.757.557 2.757l-2.25 9.489c-.669 2.816-.099 6.269-.052 6.619.029.205.295.254.416.099.172-.226 2.4-2.963 3.158-5.699.214-.775 1.229-4.787 1.229-4.787.608 1.154 2.385 2.171 4.273 2.171 5.624 0 9.438-5.105 9.438-11.936 0-5.165-4.394-9.977-11.074-9.977z"/>
    </symbol>
    <symbol id="twitter" viewBox="0 0 41 32">
      <path d="M39.544 3.569a17.041 17.041 0 0 1-4.659 1.195c1.675-.941 2.961-2.432 3.567-4.205a17.034 17.034 0 0 1-5.154 1.845C31.82.924 29.71.002 27.378.002c-4.48 0-8.115 3.405-8.115 7.603 0 .597.072 1.178.211 1.734-6.743-.318-12.721-3.345-16.723-7.944a7.21 7.21 0 0 0-1.097 3.823c0 2.635 1.432 4.966 3.608 6.328a8.516 8.516 0 0 1-3.674-.952v.098c0 3.684 2.795 6.756 6.507 7.454a8.805 8.805 0 0 1-3.663.132c1.032 3.017 4.028 5.218 7.578 5.28-2.776 2.039-6.274 3.253-10.076 3.253-.655 0-1.301-.036-1.935-.105 3.59 2.155 7.855 3.416 12.437 3.416 14.923 0 23.083-11.588 23.083-21.634a21.4 21.4 0 0 0-.024-.984 16.003 16.003 0 0 0 4.049-3.934z"/>
    </symbol>
    <symbol id="line" viewBox="0 0 33 32">
<path fill="none" stroke="#e0e0e0" style="stroke: var(--color1, #e0e0e0)" stroke-linejoin="miter" stroke-linecap="butt" stroke-miterlimit="4" stroke-width="1.9394" d="mNaNclNaNNaNclNaNNaNNaNNaNclNaNNaNclNaNNaN"></path>
</symbol>
  </defs>
</svg>
