<?xml version="1.0" encoding="UTF-8"?>
<!DOCTYPE svg PUBLIC "-//W3C//DTD SVG 1.1//EN" "http://www.w3.org/Graphics/SVG/1.1/DTD/svg11.dtd">
<!-- Creator: CorelDRAW X7 -->
<svg xmlns="http://www.w3.org/2000/svg" xml:space="preserve" width="70mm" height="44mm" version="1.1" style="shape-rendering:geometricPrecision; text-rendering:geometricPrecision; image-rendering:optimizeQuality; fill-rule:evenodd; clip-rule:evenodd"
viewBox="0 0 3908 2456"
 xmlns:xlink="http://www.w3.org/1999/xlink">
 <defs>
  <style type="text/css">
   <![CDATA[
    .fil1 {fill:none}
    .fil0 {fill:#050505}
   ]]>
  </style>
 </defs>
 <g id="Слой_x0020_1">
  <metadata id="CorelCorpID_0Corel-Layer"/>
  <path class="fil0" d="M2672 1862c-44,17 -37,54 -37,105 0,38 -3,258 4,277 12,31 63,43 102,29 43,-15 35,-56 35,-104 1,-36 3,-259 -3,-276 -11,-30 -62,-45 -101,-31zm-2565 412c52,0 123,12 136,-36 6,-24 6,-315 1,-339 -12,-50 -82,-38 -135,-38l-2 413zm2244 -1l43 0 0 -177c21,-1 27,-1 43,5 9,29 4,134 4,172l43 1c0,-35 0,-70 0,-105 1,-51 6,-57 -15,-95 21,-13 15,-46 15,-75 1,-26 3,-66 0,-91 -7,-59 -73,-48 -132,-47l-1 412zm-230 -1l0 -184c38,0 66,-2 81,-30 15,-26 9,-72 9,-105 1,-42 2,-69 -28,-85 -19,-10 -78,-11 -104,-6 -6,65 0,159 0,227l-1 171c2,20 25,15 43,12zm-1462 -217c2,7 7,17 12,25 23,37 19,-20 19,99 0,29 7,62 -25,62 -30,0 -24,-31 -24,-58l0 -247c0,-26 6,-55 38,-38 17,9 11,50 11,73 18,-4 38,-11 41,-28 7,-43 -6,-82 -55,-84 -92,-5 -78,53 -78,136 0,48 0,95 0,143 0,38 -10,100 16,123 28,25 84,22 107,-5 18,-22 11,-97 11,-132 0,-72 8,-77 -73,-69zm694 -192l-66 410 47 0 38 -277c13,28 34,227 42,276l46 2c-6,-72 -26,-155 -36,-227l-26 -169c-6,-19 -27,-22 -45,-15zm2065 56l0 299c0,47 29,59 71,59 80,0 64,-79 63,-147 -37,5 -43,15 -43,53 0,27 1,77 -38,53 -16,-10 -10,-34 -10,-67l0 -254c3,-19 23,-24 39,-15 15,9 9,82 9,107 50,-11 43,-27 43,-88 0,-52 -33,-60 -74,-60 -39,0 -60,20 -60,60zm-277 -7l0 361c23,0 103,6 118,-7 9,-7 19,-21 19,-33l-94 -1c0,-23 -4,-136 4,-152 4,-1 59,4 65,-41l-68 -1 -1 -116c0,-36 19,-15 54,-21 13,-3 31,-25 33,-39 -25,-3 -62,-1 -88,-1 -51,-1 -42,1 -42,51zm-2155 -12l61 2c7,53 -8,350 5,367 9,8 26,5 41,4 0,-55 -4,-340 2,-369 46,-12 66,13 80,-43 -36,-2 -77,0 -114,0 -78,0 -76,-9 -75,39zm2626 0l61 2c8,63 -8,340 4,368 11,6 28,4 41,3 0,-53 -3,-342 3,-369 48,-12 64,13 79,-43l-172 0c-22,2 -16,19 -16,39zm-660 284c-73,15 -39,81 -4,90 24,7 54,4 72,-7 22,-14 23,-31 23,-63 0,-60 4,-266 0,-320 -1,-23 -12,-26 -42,-22 -8,94 5,297 -1,356 -2,20 -20,30 -38,19 -14,-8 -9,-37 -10,-53zm-1324 89c30,1 61,1 91,1 32,0 46,-11 49,-41l-97 0c-2,-61 6,-340 -4,-370l-38 -3 -1 413zm1067 -376c-16,5 -16,11 -17,32l0 150c0,33 0,67 0,100 0,29 -4,77 41,59 22,-8 15,-56 15,-83l0 -202c0,-33 2,-70 -39,-56zm-2250 375l0 -343c0,-52 13,-72 -42,-68 -6,70 -1,253 -1,343 0,48 -15,80 43,68zm483 0l0 -403c-16,-11 -19,-9 -42,-8 -5,70 -1,253 -1,343 0,49 -16,80 43,68zm-778 -301l0 265c20,0 32,2 49,-7 7,-28 4,-213 4,-258 0,-66 8,-73 -53,-71l0 71zm2244 86c19,2 29,1 43,-4 5,-16 9,-126 1,-140 -9,-15 -24,-12 -44,-11l0 155zm-273 -86l1 75c53,2 48,-6 48,-75 0,-56 10,-72 -49,-71l0 71zm366 -786l71 164c13,30 49,45 81,32 31,-12 46,-47 33,-77l-71 -164 -114 45zm47 109l115 -45 -115 45zm-197 -455l161 64 -161 -64zm88 -333c0,87 -74,158 -165,158 -92,0 -165,-71 -165,-158 0,-87 73,-158 165,-158 91,0 165,71 165,158zm-83 0c0,44 -37,79 -82,79 -46,0 -83,-35 -83,-79 0,-44 37,-79 83,-79 45,0 82,35 82,79zm-198 113l-226 521 -57 234 39 15 132 -204 32 -73c-25,-57 4,-122 63,-146l131 -302c-44,-1 -85,-18 -114,-45zm231 -1c-29,28 -70,45 -114,46l194 448 115 -45 -195 -449zm-53 -349l0 -177c0,-33 -28,-60 -62,-60 -35,0 -62,27 -62,60l0 177 124 0zm-62 79c10,0 21,1 31,3l0 -82 -62 0 0 82c10,-2 20,-3 31,-3zm-860 1106l-206 0 0 -1422 206 0c45,0 82,36 82,79l0 1264 0 0c0,44 -37,79 -82,79zm-10 -1303c17,0 31,-13 31,-30 0,-16 -14,-29 -31,-29 -17,0 -31,13 -31,29 0,17 14,30 31,30zm237 721c0,16 13,29 30,29 17,0 31,-13 31,-29 0,16 14,29 31,29 17,0 31,-13 31,-29 0,16 -14,29 -31,29 -17,0 -31,-13 -31,-29 0,16 -14,29 -31,29 -17,0 -30,-13 -30,-29zm41 -840c-23,0 -41,18 -41,40l0 0 0 829 61 237 62 -237 0 -829 0 0c0,-22 -18,-40 -41,-40l-41 0z"/>
  <rect class="fil1" width="3908" height="2456"/>
 </g>
</svg>
