<!-- Generated by IcoMoon.io -->
<svg version="1.1" xmlns="http://www.w3.org/2000/svg" width="22" height="32" viewBox="0 0 22 32">
<title>location</title>
<path fill="none" stroke="#fff" stroke-linejoin="miter" stroke-linecap="butt" stroke-miterlimit="4" stroke-width="2" d="M3.016 18.498l0.011 0.016 7.973 11.709 7.995-11.74c1.478-2.003 2.15-4.725 1.979-7.438s-1.176-5.305-2.909-7.068c-3.904-3.97-10.226-3.97-14.13 0l-0.919 14.521zM3.016 18.498l-0.011-0.015M3.016 18.498l-0.011-0.015M3.005 18.483c-1.478-2.003-2.15-4.725-1.979-7.438M3.005 18.483l-1.979-7.438M1.026 11.045c0.17-2.713 1.176-5.305 2.909-7.068l-2.909 7.068zM6.476 11.077c0 2.576 2.057 4.692 4.631 4.692s4.631-2.117 4.631-4.692c0-2.576-2.057-4.692-4.631-4.692s-4.631 2.117-4.631 4.692z"></path>
</svg>
