<!-- Generated by IcoMoon.io -->
<svg version="1.1" xmlns="http://www.w3.org/2000/svg" width="41" height="32" viewBox="0 0 41 32">
<title>twitter</title>
<path fill="#fff" d="M39.544 3.569c-1.455 0.606-3.019 1.011-4.659 1.195 1.675-0.941 2.961-2.432 3.567-4.205-1.57 0.87-3.305 1.502-5.154 1.845-1.478-1.48-3.588-2.402-5.92-2.402-4.48 0-8.115 3.405-8.115 7.603 0 0.597 0.072 1.178 0.211 1.734-6.743-0.318-12.721-3.345-16.723-7.944-0.698 1.124-1.097 2.428-1.097 3.823 0 2.635 1.432 4.966 3.608 6.328-1.329-0.041-2.579-0.382-3.674-0.952 0 0.034 0 0.062 0 0.098 0 3.684 2.795 6.756 6.507 7.454-0.68 0.173-1.399 0.264-2.136 0.264-0.523 0-1.032-0.045-1.527-0.132 1.032 3.017 4.028 5.218 7.578 5.28-2.776 2.039-6.274 3.253-10.076 3.253-0.655 0-1.301-0.036-1.935-0.105 3.59 2.155 7.855 3.416 12.437 3.416 14.923 0 23.083-11.588 23.083-21.634 0-0.331-0.009-0.657-0.024-0.984 1.585-1.073 2.961-2.411 4.049-3.934z"></path>
</svg>
